<svg id="visual" viewBox="0 0 900 300" width="900" height="300" xmlns="http://www.w3.org/2000/svg" xmlns:xlink="http://www.w3.org/1999/xlink" version="1.1"><rect x="0" y="0" width="900" height="300" fill="#001220"></rect><path d="M0 235L8.8 235.3C17.7 235.7 35.3 236.3 53 236.7C70.7 237 88.3 237 106 235.7C123.7 234.3 141.3 231.7 159 230.5C176.7 229.3 194.3 229.7 212 228.7C229.7 227.7 247.3 225.3 265 226.7C282.7 228 300.3 233 318 232.8C335.7 232.7 353.3 227.3 371 225.2C388.7 223 406.3 224 423.8 224.2C441.3 224.3 458.7 223.7 476.2 224.8C493.7 226 511.3 229 529 229.5C546.7 230 564.3 228 582 227.7C599.7 227.3 617.3 228.7 635 228.3C652.7 228 670.3 226 688 226C705.7 226 723.3 228 741 228.5C758.7 229 776.3 228 794 226.7C811.7 225.3 829.3 223.7 847 224.8C864.7 226 882.3 230 891.2 232L900 234L900 301L891.2 301C882.3 301 864.7 301 847 301C829.3 301 811.7 301 794 301C776.3 301 758.7 301 741 301C723.3 301 705.7 301 688 301C670.3 301 652.7 301 635 301C617.3 301 599.7 301 582 301C564.3 301 546.7 301 529 301C511.3 301 493.7 301 476.2 301C458.7 301 441.3 301 423.8 301C406.3 301 388.7 301 371 301C353.3 301 335.7 301 318 301C300.3 301 282.7 301 265 301C247.3 301 229.7 301 212 301C194.3 301 176.7 301 159 301C141.3 301 123.7 301 106 301C88.3 301 70.7 301 53 301C35.3 301 17.7 301 8.8 301L0 301Z" fill="#fa7268"></path><path d="M0 242L8.8 241.3C17.7 240.7 35.3 239.3 53 239.2C70.7 239 88.3 240 106 241.3C123.7 242.7 141.3 244.3 159 246C176.7 247.7 194.3 249.3 212 248.5C229.7 247.7 247.3 244.3 265 243.7C282.7 243 300.3 245 318 246.7C335.7 248.3 353.3 249.7 371 248.7C388.7 247.7 406.3 244.3 423.8 241.8C441.3 239.3 458.7 237.7 476.2 237.5C493.7 237.3 511.3 238.7 529 240.8C546.7 243 564.3 246 582 246.7C599.7 247.3 617.3 245.7 635 244.2C652.7 242.7 670.3 241.3 688 241.5C705.7 241.7 723.3 243.3 741 243C758.7 242.7 776.3 240.3 794 240.8C811.7 241.3 829.3 244.7 847 245C864.7 245.3 882.3 242.7 891.2 241.3L900 240L900 301L891.2 301C882.3 301 864.7 301 847 301C829.3 301 811.7 301 794 301C776.3 301 758.7 301 741 301C723.3 301 705.7 301 688 301C670.3 301 652.7 301 635 301C617.3 301 599.7 301 582 301C564.3 301 546.7 301 529 301C511.3 301 493.7 301 476.2 301C458.7 301 441.3 301 423.8 301C406.3 301 388.7 301 371 301C353.3 301 335.7 301 318 301C300.3 301 282.7 301 265 301C247.3 301 229.7 301 212 301C194.3 301 176.7 301 159 301C141.3 301 123.7 301 106 301C88.3 301 70.7 301 53 301C35.3 301 17.7 301 8.8 301L0 301Z" fill="#ef5f67"></path><path d="M0 255L8.8 254.8C17.7 254.7 35.3 254.3 53 253.8C70.7 253.3 88.3 252.7 106 253.8C123.7 255 141.3 258 159 259C176.7 260 194.3 259 212 258C229.7 257 247.3 256 265 255.3C282.7 254.7 300.3 254.3 318 253.7C335.7 253 353.3 252 371 253.7C388.7 255.3 406.3 259.7 423.8 261C441.3 262.3 458.7 260.7 476.2 259.7C493.7 258.7 511.3 258.3 529 257.3C546.7 256.3 564.3 254.7 582 255.2C599.7 255.7 617.3 258.3 635 258.3C652.7 258.3 670.3 255.7 688 255.3C705.7 255 723.3 257 741 258C758.7 259 776.3 259 794 258.8C811.7 258.7 829.3 258.3 847 256.8C864.7 255.3 882.3 252.7 891.2 251.3L900 250L900 301L891.2 301C882.3 301 864.7 301 847 301C829.3 301 811.7 301 794 301C776.3 301 758.7 301 741 301C723.3 301 705.7 301 688 301C670.3 301 652.7 301 635 301C617.3 301 599.7 301 582 301C564.3 301 546.7 301 529 301C511.3 301 493.7 301 476.2 301C458.7 301 441.3 301 423.8 301C406.3 301 388.7 301 371 301C353.3 301 335.7 301 318 301C300.3 301 282.7 301 265 301C247.3 301 229.7 301 212 301C194.3 301 176.7 301 159 301C141.3 301 123.7 301 106 301C88.3 301 70.7 301 53 301C35.3 301 17.7 301 8.8 301L0 301Z" fill="#e34c67"></path><path d="M0 276L8.8 275.7C17.7 275.3 35.3 274.7 53 274C70.7 273.3 88.3 272.7 106 272.7C123.7 272.7 141.3 273.3 159 272.7C176.7 272 194.3 270 212 268.3C229.7 266.7 247.3 265.3 265 265.5C282.7 265.7 300.3 267.3 318 269.3C335.7 271.3 353.3 273.7 371 273.3C388.7 273 406.3 270 423.8 268.7C441.3 267.3 458.7 267.7 476.2 268.2C493.7 268.7 511.3 269.3 529 270.5C546.7 271.7 564.3 273.3 582 272.8C599.7 272.3 617.3 269.7 635 269.2C652.7 268.7 670.3 270.3 688 270.7C705.7 271 723.3 270 741 269.7C758.7 269.3 776.3 269.7 794 270.5C811.7 271.3 829.3 272.7 847 273.2C864.7 273.7 882.3 273.3 891.2 273.2L900 273L900 301L891.2 301C882.3 301 864.7 301 847 301C829.3 301 811.7 301 794 301C776.3 301 758.7 301 741 301C723.3 301 705.7 301 688 301C670.3 301 652.7 301 635 301C617.3 301 599.7 301 582 301C564.3 301 546.7 301 529 301C511.3 301 493.7 301 476.2 301C458.7 301 441.3 301 423.8 301C406.3 301 388.7 301 371 301C353.3 301 335.7 301 318 301C300.3 301 282.7 301 265 301C247.3 301 229.7 301 212 301C194.3 301 176.7 301 159 301C141.3 301 123.7 301 106 301C88.3 301 70.7 301 53 301C35.3 301 17.7 301 8.8 301L0 301Z" fill="#d53867"></path><path d="M0 286L8.8 284.8C17.7 283.7 35.3 281.3 53 281C70.7 280.7 88.3 282.3 106 282.8C123.7 283.3 141.3 282.7 159 282.8C176.7 283 194.3 284 212 283.8C229.7 283.7 247.3 282.3 265 281.2C282.7 280 300.3 279 318 279.2C335.7 279.3 353.3 280.7 371 281.3C388.7 282 406.3 282 423.8 282C441.3 282 458.7 282 476.2 282.8C493.7 283.7 511.3 285.3 529 286.7C546.7 288 564.3 289 582 287.7C599.7 286.3 617.3 282.7 635 281C652.7 279.3 670.3 279.7 688 280.8C705.7 282 723.3 284 741 284.5C758.7 285 776.3 284 794 283.7C811.7 283.3 829.3 283.7 847 284.2C864.7 284.7 882.3 285.3 891.2 285.7L900 286L900 301L891.2 301C882.3 301 864.7 301 847 301C829.3 301 811.7 301 794 301C776.3 301 758.7 301 741 301C723.3 301 705.7 301 688 301C670.3 301 652.7 301 635 301C617.3 301 599.7 301 582 301C564.3 301 546.7 301 529 301C511.3 301 493.7 301 476.2 301C458.7 301 441.3 301 423.8 301C406.3 301 388.7 301 371 301C353.3 301 335.7 301 318 301C300.3 301 282.7 301 265 301C247.3 301 229.7 301 212 301C194.3 301 176.7 301 159 301C141.3 301 123.7 301 106 301C88.3 301 70.7 301 53 301C35.3 301 17.7 301 8.8 301L0 301Z" fill="#c62368"></path></svg>